<?xml version="1.0" standalone="no"?>
<!DOCTYPE svg PUBLIC "-//W3C//DTD SVG 20010904//EN"
 "http://www.w3.org/TR/2001/REC-SVG-20010904/DTD/svg10.dtd">
<svg version="1.0" xmlns="http://www.w3.org/2000/svg"
 width="265.000000pt" height="265.000000pt" viewBox="0 0 265.000000 265.000000"
 preserveAspectRatio="xMidYMid meet">
<metadata>
Created by potrace 1.11, written by Peter Selinger 2001-2013
</metadata>
<g transform="translate(0.000000,265.000000) scale(0.100000,-0.100000)"
fill="#000000" stroke="none">
<path d="M1570 2630 c0 -7 -13 -10 -34 -7 -19 3 -38 2 -41 -1 -3 -3 -16 -7
-28 -9 -67 -9 -79 -12 -90 -21 -7 -5 -31 -13 -54 -17 -24 -4 -43 -10 -43 -15
0 -5 -20 -16 -45 -26 -25 -9 -45 -22 -45 -29 0 -11 -18 -21 -59 -30 -8 -2 -18
-11 -23 -19 -5 -9 -15 -16 -22 -16 -8 0 -16 -7 -20 -15 -3 -8 -17 -20 -31 -27
-13 -6 -27 -19 -30 -29 -3 -9 -17 -20 -31 -23 -14 -4 -22 -11 -19 -16 6 -9
-32 -50 -47 -50 -4 0 -8 -6 -8 -13 0 -7 -10 -17 -21 -22 -12 -6 -22 -14 -22
-20 0 -5 -8 -16 -19 -23 -10 -7 -16 -17 -13 -22 3 -5 -8 -19 -23 -32 -36 -29
-72 -78 -107 -145 -15 -29 -31 -53 -36 -53 -5 0 -9 -6 -9 -14 0 -8 -16 -44
-36 -80 -19 -36 -30 -66 -24 -66 14 0 59 51 60 67 0 7 9 18 20 25 11 7 20 16
20 21 0 9 63 79 109 121 18 17 49 46 67 65 19 19 34 31 34 27 0 -4 6 -2 13 4
6 6 28 24 47 41 19 17 51 37 70 45 19 8 37 19 40 25 4 5 15 11 26 13 10 3 45
16 77 30 32 15 61 25 65 22 4 -2 18 1 32 6 27 11 209 19 225 9 6 -3 16 -6 23
-7 7 -2 33 -12 58 -23 24 -12 46 -21 49 -21 10 0 67 -44 95 -72 15 -16 33 -28
39 -28 7 0 10 -4 6 -9 -3 -6 3 -18 13 -28 11 -10 32 -45 47 -78 16 -33 32 -62
36 -65 14 -11 39 -70 39 -93 0 -14 6 -42 13 -63 28 -82 26 -330 -3 -384 -5
-10 -7 -19 -5 -22 2 -2 -5 -33 -16 -68 -11 -36 -22 -74 -24 -85 -3 -11 -21
-35 -42 -53 -28 -25 -34 -35 -24 -41 8 -5 11 -17 7 -29 -7 -21 -173 -192 -187
-192 -4 0 -21 -11 -37 -25 -59 -50 -152 -95 -196 -95 -22 0 -50 -1 -61 -1 -25
-1 -95 24 -95 33 0 4 -12 19 -27 34 -35 35 -73 91 -76 112 -2 9 -9 28 -17 42
-28 51 -19 78 40 111 3 1 15 -3 28 -10 17 -9 22 -9 20 0 -2 6 45 37 103 68 58
31 121 68 138 84 18 15 36 27 39 27 4 0 12 10 17 21 6 12 13 21 17 21 4 -1 20
10 34 23 15 14 31 25 35 25 5 0 6 6 3 13 -2 7 7 23 21 35 14 12 25 28 25 35 0
7 13 28 28 47 55 69 81 220 49 290 -24 55 -93 127 -135 141 -41 14 -160 16
-207 4 -16 -4 -42 -17 -57 -27 -16 -11 -28 -16 -28 -11 0 4 -6 1 -13 -8 -7 -9
-25 -23 -42 -32 -16 -8 -63 -49 -104 -91 -40 -42 -77 -76 -82 -76 -5 0 -6 -6
-3 -14 3 -7 -9 -37 -27 -67 -27 -46 -69 -133 -99 -204 -25 -60 -39 -167 -36
-280 3 -131 5 -143 24 -163 6 -7 12 -27 12 -43 0 -16 5 -29 11 -29 5 0 8 -4 4
-9 -3 -5 2 -16 10 -24 8 -9 15 -18 15 -22 0 -15 66 -105 77 -105 7 0 13 -4 13
-10 0 -5 6 -10 14 -10 8 0 16 -4 18 -10 2 -5 23 -13 48 -16 25 -3 50 -10 57
-16 18 -15 261 -7 267 9 3 7 13 13 21 13 9 0 14 4 11 9 -7 11 52 23 67 14 6
-3 7 -1 3 5 -4 7 -1 12 9 12 9 0 13 5 10 10 -3 5 -1 10 5 10 6 0 9 4 6 9 -3 5
6 9 20 8 13 0 33 8 43 17 10 9 21 13 24 9 6 -5 11 9 9 27 0 3 9 7 21 7 12 1
23 7 25 13 5 15 32 40 43 40 6 0 7 -4 4 -10 -3 -5 -1 -10 5 -10 8 0 10 9 6 24
-4 18 1 29 23 47 15 13 33 34 40 47 7 13 17 20 24 16 7 -4 9 -4 5 1 -4 4 3 18
16 30 13 12 29 32 36 45 20 37 63 81 75 76 6 -2 12 6 13 17 0 12 6 23 12 25 5
2 8 8 4 13 -3 5 -1 9 3 9 5 0 10 14 11 31 1 18 11 43 21 58 56 82 128 287 156
446 26 146 -2 396 -53 475 -9 14 -17 31 -18 37 -2 11 -75 103 -109 138 -45 47
-200 146 -213 137 -1 -2 -15 4 -30 12 -31 15 -170 41 -179 32 -3 -3 -14 -1
-24 5 -13 7 -19 6 -19 -1z m-53 -788 c28 -67 0 -226 -54 -306 -65 -96 -106
-146 -126 -152 -12 -4 -41 -24 -64 -45 -24 -22 -51 -39 -62 -39 -10 0 -24 -7
-31 -15 -15 -18 -69 -20 -71 -2 -4 32 4 76 26 140 7 23 16 60 20 82 3 22 10
42 15 43 6 2 10 12 10 23 0 34 92 209 129 246 38 38 70 55 115 60 16 2 31 5
33 7 13 12 47 -12 60 -42z"/>
<path d="M947 2039 c-50 -29 -188 -173 -247 -256 -17 -24 -35 -43 -40 -43 -6
0 -10 -7 -10 -15 0 -8 -5 -15 -11 -15 -5 0 -7 -4 -4 -10 3 -5 2 -10 -3 -10 -6
0 -15 -12 -21 -27 -15 -36 -52 -96 -74 -121 -9 -10 -17 -26 -17 -35 0 -9 -4
-17 -9 -17 -5 0 -13 -14 -16 -32 -4 -18 -11 -39 -16 -48 -19 -35 -70 -202 -88
-285 -22 -105 -26 -276 -11 -389 29 -201 145 -390 315 -511 78 -55 115 -76
200 -109 39 -16 75 -32 80 -36 30 -23 305 -32 344 -11 9 6 26 8 37 7 10 -2 22
1 25 6 3 5 22 9 42 10 20 1 37 5 37 10 0 4 5 8 11 8 61 0 400 238 483 339 6 7
23 26 38 42 15 17 28 33 29 37 3 15 102 172 109 172 4 0 17 22 30 50 13 27 28
48 34 47 6 -1 11 5 11 13 0 8 5 32 12 54 23 68 14 68 -54 2 -178 -169 -443
-347 -494 -331 -20 7 -60 -6 -134 -41 -28 -14 -15 -12 20 2 11 4 13 2 9 -9
-12 -33 -180 -62 -251 -44 -26 7 -64 11 -83 9 -47 -4 -105 -3 -133 2 -12 3
-35 8 -52 11 -16 4 -37 13 -46 21 -8 8 -20 14 -25 14 -14 0 -88 65 -151 130
-80 84 -149 237 -171 376 -11 65 -6 312 6 327 5 7 9 26 7 42 -1 17 2 40 7 53
4 13 10 37 13 54 3 17 13 47 22 67 9 20 17 38 17 41 13 55 125 279 157 313 11
12 28 39 39 62 11 23 29 51 40 63 22 23 16 28 -13 11z"/>
<path d="M1990 1128 c0 -12 3 -18 7 -14 11 10 12 36 2 36 -5 0 -9 -10 -9 -22z"/>
</g>
</svg>
